<?xml version="1.0" encoding="UTF-8" standalone="no"?>
<svg
   xmlns:dc="http://purl.org/dc/elements/1.1/"
   xmlns:cc="http://creativecommons.org/ns#"
   xmlns:rdf="http://www.w3.org/1999/02/22-rdf-syntax-ns#"
   xmlns:svg="http://www.w3.org/2000/svg"
   xmlns="http://www.w3.org/2000/svg"
   xmlns:xlink="http://www.w3.org/1999/xlink"
   xmlns:sodipodi="http://sodipodi.sourceforge.net/DTD/sodipodi-0.dtd"
   xmlns:inkscape="http://www.inkscape.org/namespaces/inkscape"
   width="1e3"
   height="1e3"
   version="1.1"
   viewBox="0 0 1e3 1e3"
   id="svg120"
   sodipodi:docname="1.svg"
   inkscape:version="1.0.2 (e86c870879, 2021-01-15, custom)">
  <metadata
     id="metadata126">
    <rdf:RDF>
      <cc:Work
         rdf:about="">
        <dc:format>image/svg+xml</dc:format>
        <dc:type
           rdf:resource="http://purl.org/dc/dcmitype/StillImage" />
      </cc:Work>
    </rdf:RDF>
  </metadata>
  <defs
     id="defs124" />
  <sodipodi:namedview
     pagecolor="#ffffff"
     bordercolor="#666666"
     borderopacity="1"
     objecttolerance="10"
     gridtolerance="10"
     guidetolerance="10"
     inkscape:pageopacity="0"
     inkscape:pageshadow="2"
     inkscape:window-width="1920"
     inkscape:window-height="1137"
     id="namedview122"
     showgrid="false"
     inkscape:zoom="0.97"
     inkscape:cx="500"
     inkscape:cy="500"
     inkscape:window-x="-8"
     inkscape:window-y="-8"
     inkscape:window-maximized="1"
     inkscape:current-layer="svg120" />  <style
  id="style2">text {
  font-family:'MJ Handwriting';
  }</style>

  <text
     x="510.60992"
     y="596"
     style="fill:#000000;font-size:36px;line-height:1"
     id="text14"><tspan
       x="510.60992"
       y="590.28595"
       style="text-align:end;text-anchor:end"
       id="tspan2">Tierischi Produkt sind unnötig und</tspan><tspan
       x="510.60992"
       y="629"
       style="text-align:end;text-anchor:end"
       id="tspan4">verursached endlos viel Leid.</tspan><tspan
       x="510.60992"
       y="662"
       style="text-align:end;text-anchor:end"
       id="tspan6" /><tspan
       x="510.60992"
       y="696"
       style="text-align:end;text-anchor:end"
       id="tspan8">Ich finde das schlecht, darum</tspan><tspan
       x="510.60992"
       y="729"
       style="text-align:end;text-anchor:end"
       id="tspan10">konsumiere ich lieber</tspan><tspan
       x="510.60992"
       y="762"
       style="text-align:end;text-anchor:end"
       id="tspan12">öppis anderes.</tspan></text>
  <g
     transform="translate(-119.76 -2.4241)"
     id="g42">
    <g
       stroke="#000"
       stroke-width="3"
       id="g38">
      <path
         d="m266.56 235.57c-4.6015 0.072-9.3221 0.34732-13.651 1.9465-3.4732 1.2829-6.8653 2.905-9.7605 5.2578-7.2491 5.8911-11.497 15.402-10.66 24.778 0.53202 5.9563 3.5543 11.535 7.9727 15.533 4.3404 3.9278 9.7402 6.6602 15.405 7.9697 2.8421 0.65704 5.796 0.71374 8.6964 0.55115 6.7467-0.3782 13.394-2.9186 18.5-7.3817 3.4691-3.032 6.3845-6.7501 8.3382-10.918 2.0385-4.3484 2.5694-9.2784 2.2575-14.033-0.25638-3.9086-1.5598-7.7122-3.6997-10.998-1.8454-2.8335-4.4998-4.9805-6.9571-7.289-4.3715-4.1069-10.598-5.5193-16.442-5.4171z"
         fill="none"
         id="path24" />
      <path
         d="m291.32 404.5c2.0514-20.927 3.5829-41.997 2.4606-63.015-0.56396-10.562-1.4487-21.267-4.7728-31.368-1.0739-3.2634-2.5393-6.4762-5.0463-8.9157-4.6188-4.4942-10.554-7.8057-16.91-8.8694-5.7064-0.95508-11.635 0.0276-16.978 2.1145-5.6404 2.2027-10.984 6.1252-13.379 11.887-4.4618 10.733-6.031 22.425-6.5961 33.949-0.78697 16.048-0.25232 32.255 2.7225 48.046 0.89982 4.7763 2.067 9.5129 3.6943 14.126 0.39195 1.1111 1.3281 1.694 2.5554 1.7021 17.417 0.11477 46.349 0.38013 52.25 0.3443 3.3e-4 0-6e-4 -8e-4 -6e-4 -8e-4z"
         fill="#c00"
         id="path26" />
      <g
         fill="none"
         id="g36">
        <path
           d="m246.89 404.7c0.0914 9.7747 0.24045 3.9268-0.39069 12.763-1.1015 15.421-1.5488 30.884-2.8 46.299-0.24706 3.044-0.59181 8.8377-1.0939 11.85"
           id="path28" />
        <path
           d="m236.58 305.95c-3.2225 5.6196-5.7705 11.352-8.2451 17.734-5.7216 14.756-9.3957 33.026-12.83 48.483-1.1093 4.9922-2.2506 10.168-2.8651 15.238-0.16402 1.3532-0.91926 7.9291-0.40379 3.6475"
           id="path30" />
        <path
           d="m287.2 305.6c4.7566 7.588 6.3433 13.436 7.0849 15.778 2.725 8.6055 4.0966 18.002 5.9831 26.828 1.9493 9.1203 3.5283 16.931 5.7425 25.994 0.27929 1.1432 5.1326 23.973 3.6465 16.735"
           id="path32" />
        <path
           d="m281.46 404.78c-0.0913 9.7747-0.24044 3.9268 0.3907 12.763 1.1015 15.421 1.5488 30.884 2.8 46.299 0.24707 3.044 0.59182 8.8377 1.0939 11.85"
           id="path34" />
      </g>
    </g>
    <path
       class="nostroke"
       d="m257.69 332.06h9.6962v11.312h11.312v9.6962h-11.312v11.312h-9.6962v-11.312h-11.312v-9.6962h11.312z"
       fill="white"
       id="path40" />
  </g>
  <g
     transform="matrix(-1 0 0 1 1045.7 -4.4859)"
     id="g62">
    <g
       stroke="#000"
       stroke-width="3"
       id="g58">
      <path
         d="m266.56 235.57c-4.6015 0.072-9.3221 0.34732-13.651 1.9465-3.4732 1.2829-6.8653 2.905-9.7605 5.2578-7.2491 5.8911-11.497 15.402-10.66 24.778 0.53202 5.9563 3.5543 11.535 7.9727 15.533 4.3404 3.9278 9.7402 6.6602 15.405 7.9697 2.8421 0.65704 5.796 0.71374 8.6964 0.55115 6.7467-0.3782 13.394-2.9186 18.5-7.3817 3.4691-3.032 6.3845-6.7501 8.3382-10.918 2.0385-4.3484 2.5694-9.2784 2.2575-14.033-0.25638-3.9086-1.5598-7.7122-3.6997-10.998-1.8454-2.8335-4.4998-4.9805-6.9571-7.289-4.3715-4.1069-10.598-5.5193-16.442-5.4171z"
         fill="none"
         id="path44" />
      <path
         d="m291.32 404.5c2.0514-20.927 3.5829-41.997 2.4606-63.015-0.56396-10.562-1.4487-21.267-4.7728-31.368-1.0739-3.2634-2.5393-6.4762-5.0463-8.9157-4.6188-4.4942-10.554-7.8057-16.91-8.8694-5.7064-0.95508-11.635 0.0276-16.978 2.1145-5.6404 2.2027-10.984 6.1252-13.379 11.887-4.4618 10.733-6.031 22.425-6.5961 33.949-0.78697 16.048-0.25232 32.255 2.7225 48.046 0.89982 4.7763 2.067 9.5129 3.6943 14.126 0.39195 1.1111 1.3281 1.694 2.5554 1.7021 17.417 0.11477 46.349 0.38013 52.25 0.3443 3.3e-4 0-6e-4 -8e-4 -6e-4 -8e-4z"
         fill="#c00"
         id="path46" />
      <g
         fill="none"
         id="g56">
        <path
           d="m246.89 404.7c0.0914 9.7747 0.24045 3.9268-0.39069 12.763-1.1015 15.421-1.5488 30.884-2.8 46.299-0.24706 3.044-0.59181 8.8377-1.0939 11.85"
           id="path48" />
        <path
           d="m236.58 305.95c-3.2225 5.6196-5.7705 11.352-8.2451 17.734-5.7216 14.756-9.3957 33.026-12.83 48.483-1.1093 4.9922-2.2506 10.168-2.8651 15.238-0.16402 1.3532-0.91926 7.9291-0.40379 3.6475"
           id="path50" />
        <path
           d="m287.2 305.6c4.7566 7.588 6.3433 13.436 7.0849 15.778 2.725 8.6055 4.0966 18.002 5.9831 26.828 1.9493 9.1203 3.5283 16.931 5.7425 25.994 0.27929 1.1432 5.1326 23.973 3.6465 16.735"
           id="path52" />
        <path
           d="m281.46 404.78c-0.0913 9.7747-0.24044 3.9268 0.3907 12.763 1.1015 15.421 1.5488 30.884 2.8 46.299 0.24707 3.044 0.59182 8.8377 1.0939 11.85"
           id="path54" />
      </g>
    </g>
    <path
       class="nostroke"
       d="m257.69 332.06h9.6962v11.312h11.312v9.6962h-11.312v11.312h-9.6962v-11.312h-11.312v-9.6962h11.312z"
       fill="white"
       id="path60" />
  </g>
  <text
     x="777.27863"
     y="160"
     fill="#000000"
     font-size="40px"
     text-anchor="middle"
     style="line-height:1"
     id="text64">Das findi vernünftig.</text>
  <text
     x="509.07187"
     y="89"
     style="fill:#000000;font-size:36px;line-height:1"
     id="text76"><tspan
       x="509.07187"
       y="83.50515"
       style="text-align:end;text-anchor:end"
       id="tspan66">Tierischi Produkt sind unnötig und</tspan><tspan
       x="509.07187"
       y="122"
       style="text-align:end;text-anchor:end"
       id="tspan68">verursached endlos viel Leid.</tspan><tspan
       x="509.07187"
       y="189"
       style="text-align:end;text-anchor:end"
       id="tspan70">Ich finde das schlecht, aber ich</tspan><tspan
       x="509.07187"
       y="222"
       style="text-align:end;text-anchor:end"
       id="tspan72">konsumiere trotzdem</tspan><tspan
       x="509.07187"
       y="256"
       style="text-align:end;text-anchor:end"
       id="tspan74">tierischi Produkt.</tspan></text>
  <g
     transform="translate(-114.22 504.36)"
     id="g96">
    <g
       stroke="#000"
       stroke-width="3"
       id="g92">
      <path
         d="m266.56 235.57c-4.6015 0.072-9.3221 0.34732-13.651 1.9465-3.4732 1.2829-6.8653 2.905-9.7605 5.2578-7.2491 5.8911-11.497 15.402-10.66 24.778 0.53202 5.9563 3.5543 11.535 7.9727 15.533 4.3404 3.9278 9.7402 6.6602 15.405 7.9697 2.8421 0.65704 5.796 0.71374 8.6964 0.55115 6.7467-0.3782 13.394-2.9186 18.5-7.3817 3.4691-3.032 6.3845-6.7501 8.3382-10.918 2.0385-4.3484 2.5694-9.2784 2.2575-14.033-0.25638-3.9086-1.5598-7.7122-3.6997-10.998-1.8454-2.8335-4.4998-4.9805-6.9571-7.289-4.3715-4.1069-10.598-5.5193-16.442-5.4171z"
         fill="none"
         id="path78" />
      <path
         d="m291.32 404.5c2.0514-20.927 3.5829-41.997 2.4606-63.015-0.56396-10.562-1.4487-21.267-4.7728-31.368-1.0739-3.2634-2.5393-6.4762-5.0463-8.9157-4.6188-4.4942-10.554-7.8057-16.91-8.8694-5.7064-0.95508-11.635 0.0276-16.978 2.1145-5.6404 2.2027-10.984 6.1252-13.379 11.887-4.4618 10.733-6.031 22.425-6.5961 33.949-0.78697 16.048-0.25232 32.255 2.7225 48.046 0.89982 4.7763 2.067 9.5129 3.6943 14.126 0.39195 1.1111 1.3281 1.694 2.5554 1.7021 17.417 0.11477 46.349 0.38013 52.25 0.3443 3.3e-4 0-6e-4 -8e-4 -6e-4 -8e-4z"
         fill="#0c0"
         id="path80" />
      <g
         fill="none"
         id="g90">
        <path
           d="m246.89 404.7c0.0914 9.7747 0.24045 3.9268-0.39069 12.763-1.1015 15.421-1.5488 30.884-2.8 46.299-0.24706 3.044-0.59181 8.8377-1.0939 11.85"
           id="path82" />
        <path
           d="m236.58 305.95c-3.2225 5.6196-5.7705 11.352-8.2451 17.734-5.7216 14.756-9.3957 33.026-12.83 48.483-1.1093 4.9922-2.2506 10.168-2.8651 15.238-0.16402 1.3532-0.91926 7.9291-0.40379 3.6475"
           id="path84" />
        <path
           d="m287.2 305.6c4.7566 7.588 6.3433 13.436 7.0849 15.778 2.725 8.6055 4.0966 18.002 5.9831 26.828 1.9493 9.1203 3.5283 16.931 5.7425 25.994 0.27929 1.1432 5.1326 23.973 3.6465 16.735"
           id="path86" />
        <path
           d="m281.46 404.78c-0.0913 9.7747-0.24044 3.9268 0.3907 12.763 1.1015 15.421 1.5488 30.884 2.8 46.299 0.24707 3.044 0.59182 8.8377 1.0939 11.85"
           id="path88" />
      </g>
    </g>
    <path
       class="nostroke"
       d="m257.69 332.06h9.6962v11.312h11.312v9.6962h-11.312v11.312h-9.6962v-11.312h-11.312v-9.6962h11.312z"
       fill="white"
       id="path94" />
  </g>
  <g
     transform="matrix(-1 0 0 1 1051.2 502.29)"
     id="g116">
    <g
       stroke="#000"
       stroke-width="3"
       id="g112">
      <path
         d="m266.56 235.57c-4.6015 0.072-9.3221 0.34732-13.651 1.9465-3.4732 1.2829-6.8653 2.905-9.7605 5.2578-7.2491 5.8911-11.497 15.402-10.66 24.778 0.53202 5.9563 3.5543 11.535 7.9727 15.533 4.3404 3.9278 9.7402 6.6602 15.405 7.9697 2.8421 0.65704 5.796 0.71374 8.6964 0.55115 6.7467-0.3782 13.394-2.9186 18.5-7.3817 3.4691-3.032 6.3845-6.7501 8.3382-10.918 2.0385-4.3484 2.5694-9.2784 2.2575-14.033-0.25638-3.9086-1.5598-7.7122-3.6997-10.998-1.8454-2.8335-4.4998-4.9805-6.9571-7.289-4.3715-4.1069-10.598-5.5193-16.442-5.4171z"
         fill="none"
         id="path98" />
      <path
         d="m291.32 404.5c2.0514-20.927 3.5829-41.997 2.4606-63.015-0.56396-10.562-1.4487-21.267-4.7728-31.368-1.0739-3.2634-2.5393-6.4762-5.0463-8.9157-4.6188-4.4942-10.554-7.8057-16.91-8.8694-5.7064-0.95508-11.635 0.0276-16.978 2.1145-5.6404 2.2027-10.984 6.1252-13.379 11.887-4.4618 10.733-6.031 22.425-6.5961 33.949-0.78697 16.048-0.25232 32.255 2.7225 48.046 0.89982 4.7763 2.067 9.5129 3.6943 14.126 0.39195 1.1111 1.3281 1.694 2.5554 1.7021 17.417 0.11477 46.349 0.38013 52.25 0.3443 3.3e-4 0-6e-4 -8e-4 -6e-4 -8e-4z"
         fill="#c00"
         id="path100" />
      <g
         fill="none"
         id="g110">
        <path
           d="m246.89 404.7c0.0914 9.7747 0.24045 3.9268-0.39069 12.763-1.1015 15.421-1.5488 30.884-2.8 46.299-0.24706 3.044-0.59181 8.8377-1.0939 11.85"
           id="path102" />
        <path
           d="m236.58 305.95c-3.2225 5.6196-5.7705 11.352-8.2451 17.734-5.7216 14.756-9.3957 33.026-12.83 48.483-1.1093 4.9922-2.2506 10.168-2.8651 15.238-0.16402 1.3532-0.91926 7.9291-0.40379 3.6475"
           id="path104" />
        <path
           d="m287.2 305.6c4.7566 7.588 6.3433 13.436 7.0849 15.778 2.725 8.6055 4.0966 18.002 5.9831 26.828 1.9493 9.1203 3.5283 16.931 5.7425 25.994 0.27929 1.1432 5.1326 23.973 3.6465 16.735"
           id="path106" />
        <path
           d="m281.46 404.78c-0.0913 9.7747-0.24044 3.9268 0.3907 12.763 1.1015 15.421 1.5488 30.884 2.8 46.299 0.24707 3.044 0.59182 8.8377 1.0939 11.85"
           id="path108" />
      </g>
    </g>
    <path
       class="nostroke"
       d="m257.69 332.06h9.6962v11.312h11.312v9.6962h-11.312v11.312h-9.6962v-11.312h-11.312v-9.6962h11.312z"
       fill="white"
       id="path114" />
  </g>
  <text
     x="782.81671"
     y="667"
     fill="#000000"
     font-size="40px"
     text-anchor="middle"
     style="line-height:1"
     id="text118">Das findi extrem.</text>
  <g
    id="g1113">
    <g
      fill="none"
      stroke="#000000"
      stroke-width="5px"
      id="g1097">
      <path
        d="M 0,500 H 386.84911"
        id="path1089"
        sodipodi:nodetypes="cc" />
      <path
        d="M 613.242,500 H 1000"
        id="path1091"
        sodipodi:nodetypes="cc" />
    </g>
  </g>
  <text
    xml:space="preserve"
    style="font-size:24px;line-height:1.25;text-align:center;text-anchor:middle;"
    x="498.73755"
    y="507.21649"
    id="text1495"><tspan
       sodipodi:role="line"
       id="tspan1493"
       x="498.73755"
       y="507.21649">ja-aber-i-de-schwiiz.ch</tspan></text>
</svg>
