<?xml version="1.0" encoding="UTF-8" standalone="no"?>
<svg
   width="1e3"
   height="1e3"
   version="1.1"
   viewBox="0 0 1e3 1e3"
   id="svg90"
   sodipodi:docname="13.svg"
   inkscape:version="1.1 (c68e22c387, 2021-05-23)"
   xmlns:inkscape="http://www.inkscape.org/namespaces/inkscape"
   xmlns:sodipodi="http://sodipodi.sourceforge.net/DTD/sodipodi-0.dtd"
   xmlns="http://www.w3.org/2000/svg"
   xmlns:svg="http://www.w3.org/2000/svg"
   xmlns:rdf="http://www.w3.org/1999/02/22-rdf-syntax-ns#"
   xmlns:cc="http://creativecommons.org/ns#"
   xmlns:dc="http://purl.org/dc/elements/1.1/">
  <metadata
     id="metadata96">
    <rdf:RDF>
      <cc:Work
         rdf:about="">
        <dc:format>image/svg+xml</dc:format>
        <dc:type
           rdf:resource="http://purl.org/dc/dcmitype/StillImage" />
        <dc:title />
      </cc:Work>
    </rdf:RDF>
  </metadata>
  <defs
     id="defs94" />
  <sodipodi:namedview
     pagecolor="#ffffff"
     bordercolor="#666666"
     borderopacity="1"
     objecttolerance="10"
     gridtolerance="10"
     guidetolerance="10"
     inkscape:pageopacity="0"
     inkscape:pageshadow="2"
     inkscape:window-width="1920"
     inkscape:window-height="1137"
     id="namedview92"
     showgrid="false"
     inkscape:zoom="0.97"
     inkscape:cx="455.6701"
     inkscape:cy="505.6701"
     inkscape:window-x="-8"
     inkscape:window-y="-8"
     inkscape:window-maximized="1"
     inkscape:current-layer="g58481"
     inkscape:document-rotation="0"
     inkscape:pagecheckerboard="0" />
  <style
     id="style2">text { 
    font-family:'MJ Handwriting';
}</style>
  <text
     xml:space="preserve"
     style="font-size:24px;line-height:1.25;text-align:center;text-anchor:middle"
     x="499.93475"
     y="986.76794"
     id="text1495"><tspan
       sodipodi:role="line"
       id="tspan1493"
       x="499.93475"
       y="986.76794">ja-aber-i-de-schwiiz.ch</tspan></text>
  <g
     fill="none"
     stroke="#000000"
     stroke-width="5px"
     id="g1097" />
  <g
     transform="translate(309.10464,7.8852096)"
     id="g24-8-5" />
  <path
     style="fill:none;fill-opacity:1;stroke:#000000;stroke-width:5;stroke-linecap:butt;stroke-linejoin:miter;stroke-miterlimit:4;stroke-dasharray:none;stroke-opacity:1"
     d="M 130.48688,43.14723 C 417.81616,35.833315 625.33677,57.403293 869.6686,47.521087 861.88715,343.5177 876.78133,711.36278 865.11787,956.84883 624.41202,948.96016 381.89567,944.23986 130.31,955.39087 138.70968,702.44088 141.32853,301.59474 130.48688,43.14723 Z"
     id="path10268"
     sodipodi:nodetypes="ccccc" />
  <text
     xml:space="preserve"
     style="font-size:40px;line-height:1.25;font-family:'MJ Handwriting';-inkscape-font-specification:'MJ Handwriting';text-align:start;text-anchor:start"
     x="677.93842"
     y="886.49066"
     id="text15509"><tspan
       sodipodi:role="line"
       id="tspan15507"
       x="677.93842"
       y="886.49066">Tiere</tspan></text>
  <text
     xml:space="preserve"
     style="font-size:40px;line-height:1.25;font-family:'MJ Handwriting';-inkscape-font-specification:'MJ Handwriting';text-align:start;text-anchor:start"
     x="360.87048"
     y="531.69604"
     id="text22813"><tspan
       sodipodi:role="line"
       id="tspan22811"
       x="360.87048"
       y="531.69604">Menschen</tspan></text>
  <text
     xml:space="preserve"
     style="font-size:40px;line-height:1.25;font-family:'MJ Handwriting';-inkscape-font-specification:'MJ Handwriting';text-align:start;text-anchor:start"
     x="391.83612"
     y="893.35339"
     id="text24203"><tspan
       sodipodi:role="line"
       id="tspan24201"
       x="391.83612"
       y="893.35339">Katzen</tspan></text>
  <text
     xml:space="preserve"
     style="font-size:40px;line-height:1.25;font-family:'MJ Handwriting';-inkscape-font-specification:'MJ Handwriting';text-align:start;text-anchor:start"
     x="219.29433"
     y="570.87134"
     id="text28689"><tspan
       sodipodi:role="line"
       id="tspan28687"
       x="219.29433"
       y="570.87134">Kühe</tspan></text>
  <text
     xml:space="preserve"
     style="font-size:40px;line-height:1.25;font-family:'MJ Handwriting';-inkscape-font-specification:'MJ Handwriting';text-align:start;text-anchor:start"
     x="365.44113"
     y="785.5293"
     id="text30673"><tspan
       sodipodi:role="line"
       id="tspan30671"
       x="365.44113"
       y="785.5293">Enten</tspan></text>
  <text
     xml:space="preserve"
     style="font-size:40px;line-height:1.25;font-family:'MJ Handwriting';-inkscape-font-specification:'MJ Handwriting';text-align:start;text-anchor:start"
     x="713.88177"
     y="763.65479"
     id="text32129"><tspan
       sodipodi:role="line"
       id="tspan32127"
       x="713.88177"
       y="763.65479">Hunde</tspan></text>
  <text
     xml:space="preserve"
     style="font-size:40px;line-height:1.25;font-family:'MJ Handwriting';-inkscape-font-specification:'MJ Handwriting';text-align:center;text-anchor:middle"
     x="631.7478"
     y="559.41333"
     id="text35223"><tspan
       sodipodi:role="line"
       id="tspan35221"
       x="631.7478"
       y="559.41333"
       style="text-align:start;text-anchor:start">Schweine</tspan></text>
  <text
     xml:space="preserve"
     style="font-size:40px;line-height:1.25;font-family:'MJ Handwriting';-inkscape-font-specification:'MJ Handwriting';text-align:start;text-anchor:start"
     x="201.80159"
     y="821.38672"
     id="text41556"><tspan
       sodipodi:role="line"
       id="tspan41554"
       x="201.80159"
       y="821.38672">Kinder</tspan></text>
  <path
     style="fill:none;stroke:#000000;stroke-width:2;stroke-linecap:butt;stroke-linejoin:miter;stroke-miterlimit:4;stroke-dasharray:none;stroke-opacity:1"
     d="m 198.01142,526.5414 c 0,0 4.1102,36.92599 0,54.63918 25.34066,10.46919 113.40206,4.18624 113.40206,4.18624 0,0 10.43435,-37.50824 -0.0625,-55.73264 -2.86585,-6.62305 -113.33953,-3.09278 -113.33953,-3.09278 z"
     id="path42067"
     sodipodi:nodetypes="cccccc" />
  <path
     style="fill:none;stroke:#000000;stroke-width:2;stroke-linecap:butt;stroke-linejoin:miter;stroke-miterlimit:4;stroke-dasharray:none;stroke-opacity:1"
     d="m 353.92338,740.92687 c 0,0 4.1102,36.92599 0,54.63918 25.34066,10.46919 113.40206,4.18624 113.40206,4.18624 0,0 10.43435,-37.50824 -0.0625,-55.73264 -2.86585,-6.62305 -113.33953,-3.09278 -113.33953,-3.09278 z"
     id="path42067-2"
     sodipodi:nodetypes="cccccc" />
  <text
     xml:space="preserve"
     style="font-size:40px;line-height:1.25;font-family:'MJ Handwriting';-inkscape-font-specification:'MJ Handwriting';text-align:start;text-anchor:start"
     x="177.44688"
     y="702.72803"
     id="text30673-1"><tspan
       sodipodi:role="line"
       id="tspan30671-5"
       x="177.44688"
       y="702.72803">Delfine</tspan></text>
  <path
     style="fill:none;stroke:#000000;stroke-width:2;stroke-linecap:butt;stroke-linejoin:miter;stroke-miterlimit:4;stroke-dasharray:none;stroke-opacity:1"
     d="m 171.49228,658.38328 c 0,0 4.1102,36.92599 0,54.63918 25.34066,10.46919 131.95876,3.92851 131.95876,3.92851 0,0 10.43435,-37.50824 -0.0625,-55.73264 -2.86585,-6.62305 -131.89623,-2.83505 -131.89623,-2.83505 z"
     id="path42067-2-6"
     sodipodi:nodetypes="cccccc" />
  <path
     style="fill:none;stroke:#000000;stroke-width:2;stroke-linecap:butt;stroke-linejoin:miter;stroke-miterlimit:4;stroke-dasharray:none;stroke-opacity:1"
     d="m 194.19699,775.78744 c 0,0 4.1102,36.92599 0,54.63918 25.34066,10.46919 113.40206,4.18624 113.40206,4.18624 0,0 10.43435,-37.50824 -0.0625,-55.73264 -2.86585,-6.62305 -113.33953,-3.09278 -113.33953,-3.09278 z"
     id="path42067-28"
     sodipodi:nodetypes="cccccc" />
  <path
     style="fill:none;stroke:#000000;stroke-width:2;stroke-linecap:butt;stroke-linejoin:miter;stroke-miterlimit:4;stroke-dasharray:none;stroke-opacity:1"
     d="m 706.81001,718.58612 c 0,0 4.1102,36.92599 0,54.63918 25.34066,10.46919 113.40206,4.18624 113.40206,4.18624 0,0 10.43435,-37.50824 -0.0625,-55.73264 -2.86585,-6.62305 -113.33953,-3.09278 -113.33953,-3.09278 z"
     id="path42067-21"
     sodipodi:nodetypes="cccccc" />
  <text
     xml:space="preserve"
     style="font-size:40px;line-height:1.25;font-family:'MJ Handwriting';-inkscape-font-specification:'MJ Handwriting';text-align:center;text-anchor:middle"
     x="713.71002"
     y="663.64459"
     id="text32129-6"><tspan
       sodipodi:role="line"
       id="tspan32127-6"
       x="713.71002"
       y="663.64459">Küken</tspan></text>
  <path
     style="fill:none;stroke:#000000;stroke-width:2;stroke-linecap:butt;stroke-linejoin:miter;stroke-miterlimit:4;stroke-dasharray:none;stroke-opacity:1"
     d="m 653.43655,617.54505 c 0,0 4.1102,36.92599 0,54.63918 25.34066,10.46919 113.40206,4.18624 113.40206,4.18624 0,0 10.43435,-37.50824 -0.0625,-55.73264 -2.86585,-6.62305 -113.33953,-3.09278 -113.33953,-3.09278 z"
     id="path42067-21-7"
     sodipodi:nodetypes="cccccc" />
  <path
     style="fill:none;stroke:#000000;stroke-width:2;stroke-linecap:butt;stroke-linejoin:miter;stroke-miterlimit:4;stroke-dasharray:none;stroke-opacity:1"
     d="m 665.54255,841.00536 c 0,0 4.1102,36.92599 0,54.63918 25.34066,10.46919 113.40206,4.18624 113.40206,4.18624 0,0 10.43435,-37.50824 -0.0625,-55.73264 -2.86585,-6.62305 -113.33953,-3.09278 -113.33953,-3.09278 z"
     id="path42067-4"
     sodipodi:nodetypes="cccccc" />
  <path
     style="fill:none;stroke:#000000;stroke-width:2;stroke-linecap:butt;stroke-linejoin:miter;stroke-miterlimit:4;stroke-dasharray:none;stroke-opacity:1"
     d="m 518.02386,906.53535 c 0,0 -4.1102,-36.92599 0,-54.63918 -25.34066,-10.46919 -134.54237,-4.18624 -134.54237,-4.18624 0,0 -10.43435,37.50824 0.0625,55.73264 2.86585,6.62305 134.47984,3.09278 134.47984,3.09278 z"
     id="path42067-0"
     sodipodi:nodetypes="cccccc" />
  <path
     style="fill:none;stroke:#000000;stroke-width:2;stroke-linecap:butt;stroke-linejoin:miter;stroke-miterlimit:4;stroke-dasharray:none;stroke-opacity:1"
     d="m 537.30168,544.58501 c 0,0 -4.1102,-36.92599 0,-54.63918 -25.34066,-10.46919 -184.84172,-4.18624 -184.84172,-4.18624 0,0 -10.43435,37.50824 0.0625,55.73264 2.86585,6.62305 184.77919,3.09278 184.77919,3.09278 z"
     id="path42067-0-9"
     sodipodi:nodetypes="cccccc" />
  <path
     style="fill:none;stroke:#000000;stroke-width:2;stroke-linecap:butt;stroke-linejoin:miter;stroke-miterlimit:4;stroke-dasharray:none;stroke-opacity:1"
     d="m 801.83232,572.03961 c 0,0 -4.1102,-36.92599 0,-54.63918 -27.81858,-3.03542 -186.17626,-0.18263 -184.84172,-4.18624 0,0 1.34347,13.51372 0.60781,28.25942 -0.48995,9.82068 -2.19012,14.72049 -0.54531,27.47322 24.31258,-4.00516 177.06501,0.11695 184.77919,3.09278 z"
     id="path42067-0-9-1"
     sodipodi:nodetypes="cccsccc" />
  <g
     id="g58481"
     transform="translate(-1.0309222)">
    <text
       xml:space="preserve"
       style="font-size:40px;line-height:1.25;font-family:'MJ Handwriting';-inkscape-font-specification:'MJ Handwriting';text-align:center;text-anchor:middle"
       x="499.97998"
       y="285.69055"
       id="text7070"><tspan
         sodipodi:role="line"
         x="499.97998"
         y="285.69055"
         id="tspan58389">Ich liebe                  ,</tspan><tspan
         sodipodi:role="line"
         x="499.97998"
         y="335.69055"
         id="tspan7080">aber sie für mein triviales</tspan><tspan
         sodipodi:role="line"
         x="499.97998"
         y="385.69055"
         id="tspan9305">und kurzfristiges Vergnügen</tspan><tspan
         sodipodi:role="line"
         x="499.97998"
         y="435.69055"
         id="tspan9307">zu töten, finde ich in Ordnung.</tspan></text>
    <path
       style="fill:none;stroke:#000000;stroke-width:2;stroke-linecap:butt;stroke-linejoin:miter;stroke-miterlimit:4;stroke-dasharray:none;stroke-opacity:1"
       d="m 465.02322,236.83403 c 0,0 4.1102,36.92598 0,54.63918 26.93446,-3.87499 203.92555,0.0962 203.79509,1.27034 0,0 10.43435,-37.50824 -0.0625,-55.73264 -7.48806,-0.46011 -204.33397,0.62501 -203.73256,-0.17688 z"
       id="path42067-7-0"
       sodipodi:nodetypes="cccccc" />
  </g>
  <text
     xml:space="preserve"
     style="font-size:64px;line-height:1.25;font-family:'MJ Handwriting';-inkscape-font-specification:'MJ Handwriting';text-align:center;text-anchor:middle"
     x="499.93597"
     y="157.73196"
     id="text51205"><tspan
       sodipodi:role="line"
       id="tspan51203"
       x="499.93597"
       y="157.73196"
       style="font-size:64px">Fülle die Lücke</tspan></text>
  <text
     xml:space="preserve"
     style="font-size:40px;line-height:1.25;font-family:'MJ Handwriting';-inkscape-font-specification:'MJ Handwriting';text-align:center;text-anchor:middle"
     x="455.36426"
     y="659.25671"
     id="text22813-1"><tspan
       sodipodi:role="line"
       id="tspan22811-1"
       x="455.36426"
       y="659.25671">meine Familie</tspan></text>
  <path
     style="fill:none;stroke:#000000;stroke-width:2;stroke-linecap:butt;stroke-linejoin:miter;stroke-miterlimit:4;stroke-dasharray:none;stroke-opacity:1"
     d="m 581.25235,671.11472 c 0,0 -4.1102,-36.92599 0,-54.63918 -25.34066,-10.46919 -248.75924,-1.09346 -248.75924,-1.09346 0,0 -10.43435,37.50824 0.0625,55.73264 2.86585,6.62305 248.69671,0 248.69671,0 z"
     id="path42067-0-9-2"
     sodipodi:nodetypes="cccccc" />
  <text
     xml:space="preserve"
     style="font-size:40px;line-height:1.25;font-family:'MJ Handwriting';-inkscape-font-specification:'MJ Handwriting';text-align:start;text-anchor:start"
     x="545.5752"
     y="785.29419"
     id="text32129-8"><tspan
       sodipodi:role="line"
       id="tspan32127-8"
       x="545.5752"
       y="785.29419">Kälber</tspan></text>
  <path
     style="fill:none;stroke:#000000;stroke-width:2;stroke-linecap:butt;stroke-linejoin:miter;stroke-miterlimit:4;stroke-dasharray:none;stroke-opacity:1"
     d="m 537.97263,740.22546 c 0,0 4.1102,36.92599 0,54.63918 25.34066,10.46919 113.40206,4.18624 113.40206,4.18624 0,0 10.43435,-37.50824 -0.0625,-55.73264 -2.86585,-6.62305 -113.33953,-3.09278 -113.33953,-3.09278 z"
     id="path42067-21-8"
     sodipodi:nodetypes="cccccc" />
</svg>
