<?xml version="1.0" encoding="UTF-8" standalone="no"?>
<svg
   xmlns:dc="http://purl.org/dc/elements/1.1/"
   xmlns:cc="http://creativecommons.org/ns#"
   xmlns:rdf="http://www.w3.org/1999/02/22-rdf-syntax-ns#"
   xmlns:svg="http://www.w3.org/2000/svg"
   xmlns="http://www.w3.org/2000/svg"
   xmlns:sodipodi="http://sodipodi.sourceforge.net/DTD/sodipodi-0.dtd"
   xmlns:inkscape="http://www.inkscape.org/namespaces/inkscape"
   width="1e3"
   height="1e3"
   version="1.1"
   viewBox="0 0 1e3 1e3"
   id="svg90"
   sodipodi:docname="2.svg"
   inkscape:version="1.0.2 (e86c870879, 2021-01-15, custom)">
  <metadata
     id="metadata96">
    <rdf:RDF>
      <cc:Work
         rdf:about="">
        <dc:format>image/svg+xml</dc:format>
        <dc:type
           rdf:resource="http://purl.org/dc/dcmitype/StillImage" />
      </cc:Work>
    </rdf:RDF>
  </metadata>
  <defs
     id="defs94" />
  <sodipodi:namedview
     pagecolor="#ffffff"
     bordercolor="#666666"
     borderopacity="1"
     objecttolerance="10"
     gridtolerance="10"
     guidetolerance="10"
     inkscape:pageopacity="0"
     inkscape:pageshadow="2"
     inkscape:window-width="1920"
     inkscape:window-height="1137"
     id="namedview92"
     showgrid="false"
     inkscape:zoom="0.68589358"
     inkscape:cx="462.75119"
     inkscape:cy="547.71821"
     inkscape:window-x="-8"
     inkscape:window-y="-8"
     inkscape:window-maximized="1"
     inkscape:current-layer="svg90"
     inkscape:document-rotation="0" />
  <style
     id="style2">text { 
    font-family:'MJ Handwriting';
}</style>
  <text
     x="372.63974"
     y="992.95599"
     font-size="22px"
     style=""
     id="text4">ja-aber-i-de-schwiiz.ch</text>
  <g
     transform="translate(-114.22,517.76206)"
     id="g24">
    <g
       stroke="#000000"
       stroke-width="3"
       id="g20">
      <path
         d="m 266.56,235.57 c -4.6015,0.072 -9.3221,0.34732 -13.651,1.9465 -3.4732,1.2829 -6.8653,2.905 -9.7605,5.2578 -7.2491,5.8911 -11.497,15.402 -10.66,24.778 0.53202,5.9563 3.5543,11.535 7.9727,15.533 4.3404,3.9278 9.7402,6.6602 15.405,7.9697 2.8421,0.65704 5.796,0.71374 8.6964,0.55115 6.7467,-0.3782 13.394,-2.9186 18.5,-7.3817 3.4691,-3.032 6.3845,-6.7501 8.3382,-10.918 2.0385,-4.3484 2.5694,-9.2784 2.2575,-14.033 -0.25638,-3.9086 -1.5598,-7.7122 -3.6997,-10.998 -1.8454,-2.8335 -4.4998,-4.9805 -6.9571,-7.289 -4.3715,-4.1069 -10.598,-5.5193 -16.442,-5.4171 z"
         fill="none"
         id="path6" />
      <path
         d="m 291.32,404.5 c 2.0514,-20.927 3.5829,-41.997 2.4606,-63.015 -0.56396,-10.562 -1.4487,-21.267 -4.7728,-31.368 -1.0739,-3.2634 -2.5393,-6.4762 -5.0463,-8.9157 -4.6188,-4.4942 -10.554,-7.8057 -16.91,-8.8694 -5.7064,-0.95508 -11.635,0.0276 -16.978,2.1145 -5.6404,2.2027 -10.984,6.1252 -13.379,11.887 -4.4618,10.733 -6.031,22.425 -6.5961,33.949 -0.78697,16.048 -0.25232,32.255 2.7225,48.046 0.89982,4.7763 2.067,9.5129 3.6943,14.126 0.39195,1.1111 1.3281,1.694 2.5554,1.7021 17.417,0.11477 46.349,0.38013 52.25,0.3443 3.3e-4,0 -6e-4,-8e-4 -6e-4,-8e-4 z"
         fill="#00cc00"
         id="path8" />
      <g
         fill="none"
         id="g18">
        <path
           d="m 246.89,404.7 c 0.0914,9.7747 0.24045,3.9268 -0.39069,12.763 -1.1015,15.421 -1.5488,30.884 -2.8,46.299 -0.24706,3.044 -0.59181,8.8377 -1.0939,11.85"
           id="path10" />
        <path
           d="m 236.58,305.95 c -3.2225,5.6196 -5.7705,11.352 -8.2451,17.734 -5.7216,14.756 -9.3957,33.026 -12.83,48.483 -1.1093,4.9922 -2.2506,10.168 -2.8651,15.238 -0.16402,1.3532 -0.91926,7.9291 -0.40379,3.6475"
           id="path12" />
        <path
           d="m 287.2,305.6 c 4.7566,7.588 6.3433,13.436 7.0849,15.778 2.725,8.6055 4.0966,18.002 5.9831,26.828 1.9493,9.1203 3.5283,16.931 5.7425,25.994 0.27929,1.1432 5.1326,23.973 3.6465,16.735"
           id="path14" />
        <path
           d="m 281.46,404.78 c -0.0913,9.7747 -0.24044,3.9268 0.3907,12.763 1.1015,15.421 1.5488,30.884 2.8,46.299 0.24707,3.044 0.59182,8.8377 1.0939,11.85"
           id="path16" />
      </g>
    </g>
    <path
       class="nostroke"
       d="m 257.69,332.06 h 9.6962 v 11.312 h 11.312 v 9.6962 h -11.312 v 11.312 H 257.69 v -11.312 h -11.312 v -9.6962 h 11.312 z"
       fill="#ffffff"
       id="path22" />
  </g>
  <g
     transform="matrix(-1,0,0,1,1051.2,515.69206)"
     id="g44">
    <g
       stroke="#000000"
       stroke-width="3"
       id="g40">
      <path
         d="m 266.56,235.57 c -4.6015,0.072 -9.3221,0.34732 -13.651,1.9465 -3.4732,1.2829 -6.8653,2.905 -9.7605,5.2578 -7.2491,5.8911 -11.497,15.402 -10.66,24.778 0.53202,5.9563 3.5543,11.535 7.9727,15.533 4.3404,3.9278 9.7402,6.6602 15.405,7.9697 2.8421,0.65704 5.796,0.71374 8.6964,0.55115 6.7467,-0.3782 13.394,-2.9186 18.5,-7.3817 3.4691,-3.032 6.3845,-6.7501 8.3382,-10.918 2.0385,-4.3484 2.5694,-9.2784 2.2575,-14.033 -0.25638,-3.9086 -1.5598,-7.7122 -3.6997,-10.998 -1.8454,-2.8335 -4.4998,-4.9805 -6.9571,-7.289 -4.3715,-4.1069 -10.598,-5.5193 -16.442,-5.4171 z"
         fill="none"
         id="path26" />
      <path
         d="m 291.32,404.5 c 2.0514,-20.927 3.5829,-41.997 2.4606,-63.015 -0.56396,-10.562 -1.4487,-21.267 -4.7728,-31.368 -1.0739,-3.2634 -2.5393,-6.4762 -5.0463,-8.9157 -4.6188,-4.4942 -10.554,-7.8057 -16.91,-8.8694 -5.7064,-0.95508 -11.635,0.0276 -16.978,2.1145 -5.6404,2.2027 -10.984,6.1252 -13.379,11.887 -4.4618,10.733 -6.031,22.425 -6.5961,33.949 -0.78697,16.048 -0.25232,32.255 2.7225,48.046 0.89982,4.7763 2.067,9.5129 3.6943,14.126 0.39195,1.1111 1.3281,1.694 2.5554,1.7021 17.417,0.11477 46.349,0.38013 52.25,0.3443 3.3e-4,0 -6e-4,-8e-4 -6e-4,-8e-4 z"
         fill="#cc0000"
         id="path28" />
      <g
         fill="none"
         id="g38">
        <path
           d="m 246.89,404.7 c 0.0914,9.7747 0.24045,3.9268 -0.39069,12.763 -1.1015,15.421 -1.5488,30.884 -2.8,46.299 -0.24706,3.044 -0.59181,8.8377 -1.0939,11.85"
           id="path30" />
        <path
           d="m 236.58,305.95 c -3.2225,5.6196 -5.7705,11.352 -8.2451,17.734 -5.7216,14.756 -9.3957,33.026 -12.83,48.483 -1.1093,4.9922 -2.2506,10.168 -2.8651,15.238 -0.16402,1.3532 -0.91926,7.9291 -0.40379,3.6475"
           id="path32" />
        <path
           d="m 287.2,305.6 c 4.7566,7.588 6.3433,13.436 7.0849,15.778 2.725,8.6055 4.0966,18.002 5.9831,26.828 1.9493,9.1203 3.5283,16.931 5.7425,25.994 0.27929,1.1432 5.1326,23.973 3.6465,16.735"
           id="path34" />
        <path
           d="m 281.46,404.78 c -0.0913,9.7747 -0.24044,3.9268 0.3907,12.763 1.1015,15.421 1.5488,30.884 2.8,46.299 0.24707,3.044 0.59182,8.8377 1.0939,11.85"
           id="path36" />
      </g>
    </g>
    <path
       class="nostroke"
       d="m 257.69,332.06 h 9.6962 v 11.312 h 11.312 v 9.6962 h -11.312 v 11.312 H 257.69 v -11.312 h -11.312 v -9.6962 h 11.312 z"
       fill="#ffffff"
       id="path42" />
  </g>
  <text
     x="742.29102"
     y="103.94298"
     font-size="32px"
     text-anchor="end"
     xml:space="preserve"
     id="text52"><tspan
       sodipodi:role="line"
       id="tspan1012"
       x="742.29102"
       y="103.94298"
       style="text-align:center;text-anchor:middle">Ich chönt nie vegan si, darunter</tspan><tspan
       sodipodi:role="line"
       x="742.29102"
       y="143.94296"
       style="text-align:center;text-anchor:middle"
       id="tspan1050">würd mini psychischi Gsundheit liide!</tspan></text>
  <text
     x="575.54993"
     y="668.77301"
     xml:space="preserve"
     id="text80"><tspan
       x="575.54993"
       y="668.77301"
       font-size="32px"
       id="tspan78">Ach chum, weg dem  bizeli Leid.</tspan></text>
  <g
     fill="none"
     stroke="#000000"
     stroke-width="1px"
     id="g88"
     transform="translate(0,13.402062)">
    <path
       d="m 783.51,721.65 c 1.7604,-7.7154 2.0209,-15.691 1.52,-23.568 -0.48387,-7.6093 -1.5328,-15.188 -1.52,-22.824"
       id="path82" />
    <path
       d="m 218.56,750.52 c 17.682,-10.327 35.401,-21.382 49.304,-36.653 10.311,-11.325 17.064,-25.546 20.428,-40.435 3.9084,-17.296 4.427,-35.148 4.495,-52.81"
       id="path84" />
    <path
       d="m 780.41,159.79 c 1.0139,28.231 -1.5742,56.431 -1.1927,84.647 0.45122,33.369 4.6561,66.572 3.9368,99.994 -1.3179,61.239 -6.5765,122.34 -7.1164,183.6 -0.23227,26.354 -1.0152,52.903 2.3104,79.103"
       id="path86" />
    <path
       d="m 278.50862,154.06864 c 1.7604,-7.7154 2.0209,-15.691 1.52,-23.568 -0.48387,-7.6093 0.52906,-58.486969 0.54186,-66.122969"
       id="path82-3"
       sodipodi:nodetypes="csc" />
  </g>
  <text
     x="166.22235"
     y="55.138992"
     xml:space="preserve"
     id="text80-8"
     ><tspan
       x="166.22235"
       y="55.138992"
       font-size="32px"
       id="tspan78-7">Bitte wird vegan.</tspan></text>
  <text
     xml:space="preserve"
     style="font-size:32px"
     x="14.432991"
     y="228.86597"
     id="text900"><tspan
       sodipodi:role="line"
       id="tspan898"
       x="14.432991"
       y="228.86597">Tier werdet gschwängert, kastriert, qualzüchtet, vo</tspan><tspan
       sodipodi:role="line"
       x="14.432991"
       y="268.86597"
       id="tspan902">ihrne Familie trennt, s'Läbe lang ihgsperrt und</tspan><tspan
       sodipodi:role="line"
       x="14.432991"
       y="308.86597"
       id="tspan904">usbüütet. Ihne wird ohni Betäubig de Schwanz</tspan><tspan
       sodipodi:role="line"
       x="14.432991"
       y="348.86597"
       id="tspan906">abgeschnitte, d'Hörner usbrennt, d'Schnäbel und</tspan><tspan
       sodipodi:role="line"
       x="14.432991"
       y="388.86597"
       id="tspan910">Zäh kürzt. Sie werdet werdet gschreddert oder</tspan><tspan
       sodipodi:role="line"
       x="14.432991"
       y="428.86597"
       id="tspan926">vergast. Ihne wird is Hirn gschosse, d'Kehle ufgschlitzt</tspan><tspan
       sodipodi:role="line"
       x="14.432991"
       y="468.86597"
       id="tspan912">und de Chopf abgschnitte.</tspan><tspan
       sodipodi:role="line"
       x="14.432991"
       y="508.86597"
       id="tspan922" /><tspan
       sodipodi:role="line"
       x="14.432991"
       y="548.86597"
       id="tspan914">Das alles isch völlig unnötig und als nöd-Veganer</tspan><tspan
       sodipodi:role="line"
       x="14.432991"
       y="588.86597"
       id="tspan938">isch mer für all de Horror verantwortlich.</tspan></text>
</svg>
