<?xml version="1.0" encoding="UTF-8" standalone="no"?>
<svg
   width="1e3"
   height="1e3"
   version="1.1"
   viewBox="0 0 1e3 1e3"
   id="svg90"
   sodipodi:docname="25.svg"
   inkscape:version="1.2.2 (732a01da63, 2022-12-09)"
   xmlns:inkscape="http://www.inkscape.org/namespaces/inkscape"
   xmlns:sodipodi="http://sodipodi.sourceforge.net/DTD/sodipodi-0.dtd"
   xmlns="http://www.w3.org/2000/svg"
   xmlns:svg="http://www.w3.org/2000/svg"
   xmlns:rdf="http://www.w3.org/1999/02/22-rdf-syntax-ns#"
   xmlns:cc="http://creativecommons.org/ns#"
   xmlns:dc="http://purl.org/dc/elements/1.1/">
  <metadata
     id="metadata96">
    <rdf:RDF>
      <cc:Work
         rdf:about="">
        <dc:format>image/svg+xml</dc:format>
        <dc:type
           rdf:resource="http://purl.org/dc/dcmitype/StillImage" />
      </cc:Work>
    </rdf:RDF>
  </metadata>
  <defs
     id="defs94">
    <inkscape:path-effect
       effect="bspline"
       id="path-effect10954"
       is_visible="true"
       lpeversion="1"
       weight="33.333333"
       steps="2"
       helper_size="0"
       apply_no_weight="true"
       apply_with_weight="true"
       only_selected="false" />
    <inkscape:path-effect
       effect="bspline"
       id="path-effect10937"
       is_visible="true"
       lpeversion="1"
       weight="33.333333"
       steps="2"
       helper_size="0"
       apply_no_weight="true"
       apply_with_weight="true"
       only_selected="false" />
    <inkscape:path-effect
       effect="bspline"
       id="path-effect10933"
       is_visible="true"
       lpeversion="1"
       weight="33.333333"
       steps="2"
       helper_size="0"
       apply_no_weight="true"
       apply_with_weight="true"
       only_selected="false" />
    <inkscape:path-effect
       effect="simplify"
       id="path-effect109568"
       is_visible="true"
       lpeversion="1"
       steps="1"
       threshold="0.00108696"
       smooth_angles="360"
       helper_size="0"
       simplify_individual_paths="false"
       simplify_just_coalesce="false" />
    <inkscape:path-effect
       effect="simplify"
       id="path-effect110577"
       is_visible="true"
       lpeversion="1"
       steps="1"
       threshold="0.00108696"
       smooth_angles="360"
       helper_size="0"
       simplify_individual_paths="false"
       simplify_just_coalesce="false" />
    <inkscape:path-effect
       effect="simplify"
       id="path-effect110581"
       is_visible="true"
       lpeversion="1"
       steps="1"
       threshold="0.00108696"
       smooth_angles="360"
       helper_size="0"
       simplify_individual_paths="false"
       simplify_just_coalesce="false" />
    <inkscape:path-effect
       effect="simplify"
       id="path-effect110597"
       is_visible="true"
       lpeversion="1"
       steps="1"
       threshold="0.00108696"
       smooth_angles="360"
       helper_size="0"
       simplify_individual_paths="false"
       simplify_just_coalesce="false" />
    <inkscape:path-effect
       effect="simplify"
       id="path-effect110601"
       is_visible="true"
       lpeversion="1"
       steps="1"
       threshold="0.00108696"
       smooth_angles="360"
       helper_size="0"
       simplify_individual_paths="false"
       simplify_just_coalesce="false" />
    <inkscape:path-effect
       effect="simplify"
       id="path-effect112254"
       is_visible="true"
       lpeversion="1"
       steps="1"
       threshold="0.00108696"
       smooth_angles="360"
       helper_size="0"
       simplify_individual_paths="false"
       simplify_just_coalesce="false" />
    <inkscape:path-effect
       effect="bspline"
       id="path-effect10954-2"
       is_visible="true"
       lpeversion="1"
       weight="33.333333"
       steps="2"
       helper_size="0"
       apply_no_weight="true"
       apply_with_weight="true"
       only_selected="false" />
    <inkscape:path-effect
       effect="bspline"
       id="path-effect10954-4"
       is_visible="true"
       lpeversion="1"
       weight="33.333333"
       steps="2"
       helper_size="0"
       apply_no_weight="true"
       apply_with_weight="true"
       only_selected="false" />
  </defs>
  <sodipodi:namedview
     pagecolor="#ffffff"
     bordercolor="#666666"
     borderopacity="1"
     objecttolerance="10"
     gridtolerance="10"
     guidetolerance="10"
     inkscape:pageopacity="0"
     inkscape:pageshadow="2"
     inkscape:window-width="2015"
     inkscape:window-height="1230"
     id="namedview92"
     showgrid="false"
     inkscape:zoom="0.97"
     inkscape:cx="596.90722"
     inkscape:cy="522.16495"
     inkscape:window-x="2581"
     inkscape:window-y="63"
     inkscape:window-maximized="0"
     inkscape:current-layer="g88"
     inkscape:document-rotation="0"
     inkscape:showpageshadow="2"
     inkscape:pagecheckerboard="0"
     inkscape:deskcolor="#d1d1d1"
     showguides="true" />
  <style
     id="style2">text {
    font-family:'MJ Handwriting';
    }</style>
  <text
     x="402.63974"
     y="992.95599"
     font-size="22px"
     style=""
     id="text4">ja-aber-i-de-schwiiz.ch</text>
  <g
     transform="translate(-114.22,505.39093)"
     id="g24">
    <g
       stroke="#000000"
       stroke-width="3"
       id="g20">
      <path
         d="m 266.56,235.57 c -4.6015,0.072 -9.3221,0.34732 -13.651,1.9465 -3.4732,1.2829 -6.8653,2.905 -9.7605,5.2578 -7.2491,5.8911 -11.497,15.402 -10.66,24.778 0.53202,5.9563 3.5543,11.535 7.9727,15.533 4.3404,3.9278 9.7402,6.6602 15.405,7.9697 2.8421,0.65704 5.796,0.71374 8.6964,0.55115 6.7467,-0.3782 13.394,-2.9186 18.5,-7.3817 3.4691,-3.032 6.3845,-6.7501 8.3382,-10.918 2.0385,-4.3484 2.5694,-9.2784 2.2575,-14.033 -0.25638,-3.9086 -1.5598,-7.7122 -3.6997,-10.998 -1.8454,-2.8335 -4.4998,-4.9805 -6.9571,-7.289 -4.3715,-4.1069 -10.598,-5.5193 -16.442,-5.4171 z"
         fill="none"
         id="path6" />
      <path
         d="m 291.32,404.5 c 2.0514,-20.927 3.5829,-41.997 2.4606,-63.015 -0.56396,-10.562 -1.4487,-21.267 -4.7728,-31.368 -1.0739,-3.2634 -2.5393,-6.4762 -5.0463,-8.9157 -4.6188,-4.4942 -10.554,-7.8057 -16.91,-8.8694 -5.7064,-0.95508 -11.635,0.0276 -16.978,2.1145 -5.6404,2.2027 -10.984,6.1252 -13.379,11.887 -4.4618,10.733 -6.031,22.425 -6.5961,33.949 -0.78697,16.048 -0.25232,32.255 2.7225,48.046 0.89982,4.7763 2.067,9.5129 3.6943,14.126 0.39195,1.1111 1.3281,1.694 2.5554,1.7021 17.417,0.11477 46.349,0.38013 52.25,0.3443 3.3e-4,0 -6e-4,-8e-4 -6e-4,-8e-4 z"
         fill="#00cc00"
         id="path8"
         style="fill:#000000;fill-opacity:1" />
      <g
         fill="none"
         id="g18">
        <path
           d="m 246.89,404.7 c 0.0914,9.7747 0.24045,3.9268 -0.39069,12.763 -1.1015,15.421 -1.5488,30.884 -2.8,46.299 -0.24706,3.044 -0.59181,8.8377 -1.0939,11.85"
           id="path10" />
        <path
           d="m 236.58,305.95 c -3.2225,5.6196 -5.7705,11.352 -8.2451,17.734 -5.7216,14.756 -9.3957,33.026 -12.83,48.483 -1.1093,4.9922 -2.2506,10.168 -2.8651,15.238 -0.16402,1.3532 -0.91926,7.9291 -0.40379,3.6475"
           id="path12" />
        <path
           d="m 287.2,305.6 c 4.7566,7.588 6.3433,13.436 7.0849,15.778 2.725,8.6055 4.0966,18.002 5.9831,26.828 1.9493,9.1203 3.5283,16.931 5.7425,25.994 0.27929,1.1432 5.1326,23.973 3.6465,16.735"
           id="path14" />
        <path
           d="m 281.46,404.78 c -0.0913,9.7747 -0.24044,3.9268 0.3907,12.763 1.1015,15.421 1.5488,30.884 2.8,46.299 0.24707,3.044 0.59182,8.8377 1.0939,11.85"
           id="path16" />
      </g>
      <g
         id="g114206"
         transform="translate(187.55191,-9.3448608)">
        <path
           style="fill:none;stroke:#000000;stroke-width:1.49409px;stroke-linecap:butt;stroke-linejoin:miter;stroke-opacity:1"
           d="m 123.41078,399.92135 6.21546,-1.75024 v 0"
           id="path107685" />
        <path
           style="fill:none;stroke:#000000;stroke-width:1.49409px;stroke-linecap:butt;stroke-linejoin:miter;stroke-opacity:1"
           d="m 176.65101,375.2512 c 0,0 -14.4025,21.58008 -44.41693,30.80323 -1.86682,-6.44527 -4.28237,-15.93979 -4.28237,-15.93979 z"
           id="path107691"
           sodipodi:nodetypes="cccc" />
        <path
           style="fill:#ff0000;fill-opacity:1;stroke:none;stroke-width:1.49409px;stroke-linecap:butt;stroke-linejoin:miter;stroke-opacity:1"
           d="m 131.25998,400.75785 c 2.45818,-1.33669 5.47932,-0.51674 7.92109,-2.00823 2.27967,-1.39247 4.12555,-3.51234 6.75541,-4.29982 1.45408,-0.43541 2.54759,-1.52272 3.84168,-2.26514 1.19262,-0.68421 2.1494,-1.66409 3.12994,-2.62739 1.32172,-1.29848 3.24608,-1.53652 4.9655,-1.96396 1.68517,-0.41892 3.39942,-0.98748 4.6312,-2.30509 1.38018,-1.47635 2.68446,-3.06373 4.51945,-4.04546 1.05098,-0.56228 2.90691,-0.52082 3.15511,-1.69337 0.21997,-1.0392 1.0238,-1.50752 1.90489,-2.08566 1.27446,-0.83625 2.59211,-1.82872 4.10497,-2.03965 0.88621,-0.12356 -0.10066,1.23873 -0.32656,1.62558 -2.02185,3.46243 -4.74882,6.15977 -7.70749,9.00458 -1.01373,0.97472 -1.81835,2.22942 -3.01666,2.95531 -3.03197,1.83666 -5.46196,4.54232 -8.55563,6.30253 -1.82573,1.03879 -3.38301,2.44769 -5.29565,3.40549 -1.8939,0.94842 -3.75815,1.93874 -5.68623,2.83377 -2.48544,1.15376 -4.89295,2.51969 -7.57084,3.20824 -1.67953,0.43185 -3.5126,1.70394 -5.11707,1.00752 -0.951,-0.41278 -1.10787,-1.68445 -1.2663,-2.60008 -0.13866,-0.80139 -0.19847,-1.6167 -0.38681,-2.40917 z"
           id="path109566"
           inkscape:path-effect="#path-effect109568"
           inkscape:original-d="m 131.25998,400.75785 c 2.06955,-1.16462 4.8251,-0.58975 6.94338,-1.49759 2.08386,-0.89308 4.18157,-3.17994 6.26265,-4.22048 1.11979,-0.5599 2.26571,-0.71845 3.26748,-1.49759 1.22164,-0.95016 2.63382,-1.60491 3.81203,-2.58675 0.98775,-0.82312 1.34589,-1.73467 2.7229,-2.31445 1.81326,-0.76348 5.21276,-1.22164 6.80722,-2.17833 1.65124,-0.99073 2.80274,-3.01187 4.35664,-4.22047 1.51,-1.17445 3.15225,-1.60232 4.62892,-2.58675 0.35558,-0.23706 0.36587,-0.86789 0.54458,-1.22531 0.22213,-0.44426 1.30572,-0.76115 1.63373,-1.08915 0.12042,-0.12042 3.97154,-2.29109 4.35663,-1.90602 -1.54459,4.65908 -6.66883,6.24879 -8.44097,10.61928 -0.95126,0.95126 -1.85351,1.85351 -2.85905,2.85903 -3.37402,2.0594 -5.99504,3.76014 -8.71324,6.39881 -1.06342,0.5317 -3.52583,2.76361 -4.62892,3.13131 -1.26953,0.42318 -3.59722,1.98347 -5.44578,2.7229 -2.48475,0.9939 -4.39414,2.28158 -6.94337,3.13133 -0.68028,0.22675 -6.35341,1.9514 -6.94337,1.36144 -1.05539,-1.05537 -1.01023,-3.49629 -1.36146,-4.90121 z"
           sodipodi:nodetypes="cssssssssssccccssssc" />
        <path
           style="fill:#ff0000;fill-opacity:1;stroke:none;stroke-width:1px;stroke-linecap:butt;stroke-linejoin:miter;stroke-opacity:1"
           d="m 135.58954,406.22192 c -0.16018,1.52867 -0.64386,2.99625 -1.00584,4.48366 -0.36612,1.50443 -0.68156,3.06491 -0.4747,4.61936 0.0858,0.64473 0.32077,1.25646 0.6116,1.83568 0.32294,0.64316 0.6627,1.2869 1.12595,1.84556 0.13736,0.16565 0.41531,0.33511 0.60037,0.1157 0.37418,-0.44363 0.36456,-1.06121 0.33491,-1.60846 -0.0403,-0.74311 -0.28902,-1.48114 -0.19513,-2.223 0.20959,-1.65604 0.78769,-3.27665 0.68291,-4.96403 -0.0442,-0.71162 -0.26569,-1.41348 -0.68015,-2.00198 -0.2853,-0.4051 -0.52433,-0.87915 -0.48088,-1.3902 0.0286,-0.33682 -0.27443,-0.54559 -0.51904,-0.71229 z"
           id="path110575"
           inkscape:path-effect="#path-effect110577"
           inkscape:original-d="m 135.58954,406.22192 c -0.29275,3.12337 -2.57819,7.50957 -1.00234,10.66127 0.14162,0.28323 1.28132,2.81917 1.82244,2.27805 0.81986,-0.81986 0.0579,-2.92379 0.18225,-3.91824 0.23825,-1.90605 1.18229,-4.37922 0.36448,-6.28742 -0.20406,-0.47616 -0.53137,-0.78171 -0.72897,-1.27571 -0.32364,-0.8091 0.21362,-0.8903 -0.63786,-1.45795 z" />
        <path
           style="fill:#ff0000;fill-opacity:1;stroke:none;stroke-width:1px;stroke-linecap:butt;stroke-linejoin:miter;stroke-opacity:1"
           d="m 140.96575,422.71499 c -0.25337,1.83405 -1.0851,3.52665 -1.3464,5.36127 -0.19124,1.34271 -0.29135,2.73154 9.6e-4,4.05694 0.0863,0.3914 0.0551,1.43026 0.34312,1.15194 0.54699,-0.52848 0.83332,-1.26885 0.92456,-2.01583 0.11009,-0.90134 -0.0634,-1.82207 0.0999,-2.71471 0.13245,-0.72414 0.61759,-1.32194 0.72785,-2.05924 0.13723,-0.91762 -0.0568,-1.8456 -0.35574,-2.7133 -0.12352,-0.35856 -0.26118,-0.71203 -0.39426,-1.06707 z"
           id="path110579"
           inkscape:path-effect="#path-effect110581"
           inkscape:original-d="m 140.96575,422.71499 c -0.22995,1.6855 -0.98111,3.25121 -1.27571,4.92059 -0.25448,1.44204 -0.28811,2.92924 -0.0911,4.37385 0.0543,0.39852 0.35671,1.28349 0.36449,1.27571 1.29404,-1.29403 0.87878,-2.94981 1.00234,-4.5561 0.0583,-0.75756 0.60226,-1.33552 0.72898,-2.0958 0.24685,-1.48115 -0.24357,-2.62381 -0.72898,-3.91825 z" />
        <path
           style="fill:#ff0000;fill-opacity:1;stroke:none;stroke-width:1.67078px;stroke-linecap:butt;stroke-linejoin:miter;stroke-opacity:1"
           d="m 135.71298,438.66134 c -0.4,1.8044 -0.9793,3.5609 -1.56595,5.31355 -0.17896,0.53465 -0.4444,1.0763 -0.39089,1.65075 0.0549,0.58963 0.4375,1.07282 0.79045,1.51954 0.51421,0.65083 1.21559,2.66613 1.58072,1.92147 0.27478,-0.5604 0.40902,-1.18036 0.49421,-1.79537 0.14522,-1.04836 0.0411,-2.10756 -0.0619,-3.15386 -0.18039,-1.83259 -0.47724,-3.65256 -0.84665,-5.45608 z"
           id="path110595"
           inkscape:path-effect="#path-effect110597"
           inkscape:original-d="m 135.71298,438.66134 c -1.8798,8.33273 -3.43421,5.72866 0.41433,10.40531 0.008,0.009 0.6601,-1.26317 0.55243,-3.35655 -0.1208,-2.34935 -0.52489,-4.90092 -0.96676,-7.04876 z" />
        <path
           style="fill:#ff0000;fill-opacity:1;stroke:none;stroke-width:1.31788px;stroke-linecap:butt;stroke-linejoin:miter;stroke-opacity:1"
           d="m 141.00433,455.88341 c -0.23216,2.62463 -0.3725,5.2575 -0.42607,7.89116 -0.0198,0.97287 -0.0678,1.98456 0.26205,2.90624 0.0737,0.20582 0.14828,0.54961 0.39926,0.53817 0.26187,-0.0119 0.42589,-0.26148 0.54517,-0.46378 0.40337,-0.68411 0.64544,-1.45043 0.8441,-2.21623 0.11652,-0.44917 0.072,-0.91663 0.0486,-1.37368 -0.0619,-1.21117 -0.20535,-2.43235 -0.59441,-3.58587 -0.27182,-0.80591 -0.80551,-1.49817 -1.03918,-2.31823 -0.12749,-0.44742 -0.13165,-0.92328 -0.0395,-1.37778 z"
           id="path110599"
           inkscape:path-effect="#path-effect110601"
           inkscape:original-d="m 141.00433,455.88341 c -0.20426,2.28982 -0.30387,4.57035 -0.3909,6.86202 -0.0455,1.19655 -0.10309,2.35195 0.13027,3.54168 0.54374,2.77122 1.95446,-1.44101 1.95446,-2.21355 0,-1.34649 -0.13599,-2.89717 -0.52119,-4.20575 -0.4681,-1.5905 -1.50241,-2.30392 -1.17267,-3.9844 z" />
        <path
           style="fill:#ff0000;fill-opacity:1;stroke:none;stroke-width:1px;stroke-linecap:butt;stroke-linejoin:miter;stroke-opacity:1"
           d="m 125.56613,480.39522 c -1.24517,0.5674 -2.06088,1.79938 -2.79063,2.92447 -0.75456,1.16334 0.76645,1.78603 1.74612,1.73233 2.16971,-0.11893 3.63794,-3.10561 5.65261,-2.64839 1.26309,0.28665 2.54456,0.83775 3.82172,1.21765 1.35329,0.40254 2.57027,1.13545 3.49749,2.26989 1.10003,1.34586 1.32893,3.51057 3.14631,4.13469 1.72523,0.59247 3.62063,0.40827 5.32074,-0.2926 1.86004,-0.7668 3.49912,-2.1484 5.48683,-2.50749 2.11113,-0.38139 4.3165,1.19898 6.32554,0.12883 1.55671,-0.82921 2.56919,-2.78197 4.48592,-2.79235 2.91526,-0.0158 5.65809,1.06328 8.58835,1.25823 1.88739,0.12557 1.01824,-1.91252 2.50111,-2.65627 1.85698,-0.93139 4.08209,-1.10948 5.73315,-2.43105 1.06333,-0.85113 0.63217,-2.36586 0.15631,-3.37833 -0.66541,-1.41577 -1.46942,-3.21856 -3.09507,-3.57077 -1.56605,-0.3393 -2.75597,1.04851 -3.78734,2.00741 -1.03198,0.95947 -1.97408,2.50463 -3.50389,2.49622 -1.29391,-0.007 -1.78081,-1.38521 -1.71161,-2.55867 0.0808,-1.36961 1.41743,-3.08037 0.42576,-4.09966 -1.01346,-1.04169 -2.78759,-0.74542 -4.13536,-0.70378 -4.27333,0.13204 -8.49441,0.95086 -12.81052,0.60777 -2.8488,-0.22645 -5.78754,-1.17962 -8.56595,-0.4875 -1.71922,0.42827 -3.37806,1.6631 -3.76374,3.44599 -0.22992,1.06286 -1.01121,2.23531 -2.29673,1.23526 -1.38646,-1.07857 -2.50081,-2.80004 -4.23083,-3.16837 -1.85648,-0.39525 -3.95616,-0.50448 -5.64956,0.36449 -1.77771,0.91223 -3.56591,1.99937 -4.78336,3.64881 -0.96285,1.3045 0.47689,2.89744 1.96277,2.37971 1.39483,-0.48601 1.70759,0.46529 2.27386,1.44348 z"
           id="path112252"
           inkscape:path-effect="#path-effect112254"
           inkscape:original-d="m 125.56613,480.39522 c -0.9504,0.18902 -3.86106,3.44002 -2.73366,4.19162 2.83749,1.89166 6.82701,-2.60055 7.65425,-2.18693 1.68362,0.84181 5.01565,1.37077 6.19629,2.55142 2.91208,2.91207 1.36618,5.46732 6.74303,5.46732 2.08611,0 5.57547,-2.40523 7.65425,-3.09815 1.91502,-0.63834 4.54045,0.94811 6.37854,0.18224 1.72519,-0.71883 2.60442,-2.63709 4.5561,-2.9159 2.49843,-0.35692 8.36039,2.39201 10.02342,0.72897 0.17613,-0.17613 0.13305,-1.16865 0.36449,-1.45795 1.33843,-1.67304 7.62068,-1.90877 7.28976,-4.5561 -0.10971,-0.87767 -0.31274,-1.77097 -0.72898,-2.55142 -4.27847,-8.02212 -7.30354,2.54683 -10.57015,1.45796 -3.26498,-1.08833 1.07604,-6.71949 -1.6402,-7.10752 -5.12946,-0.73278 -9.91584,1.00384 -14.94401,0.54673 -0.55173,-0.0502 -9.04418,-0.91394 -10.02342,-0.54673 -4.40421,1.65158 -2.72578,4.18767 -4.92058,5.28508 -0.13776,0.0689 -4.09493,-3.53915 -5.10284,-3.82713 -1.44309,-0.41231 -4.33395,-0.24271 -5.64956,0.36449 -1.30795,0.60367 -5.98177,3.16272 -4.92059,5.28508 0.82111,1.64222 2.85606,0.1224 3.64488,0.91122 0.29868,0.29868 0.21619,0.76292 0.72898,1.2757 z" />
      </g>
      <path
         id="path10931"
         style="fill:#000000;fill-opacity:1;stroke:#000000"
         d="m 234.90108,261.38145 c -2.16704,2.01559 1.62006,14.43185 6.6248,19.32845 5.00474,4.89658 13.71778,8.27212 20.41869,8.48662 6.70092,0.2145 14.59675,-2.28596 20.13765,-7.05383 5.54091,-4.76789 11.40456,-19.65049 9.90127,-20.87496 -1.50328,-1.22448 -9.97895,5.80746 -15.34804,6.94635 -5.36911,1.13889 -10.43932,-6.1001 -13.66154,-6.0576 -3.22223,0.0425 -7.04494,7.5606 -12.22051,6.29387 -4.85209,-1.18758 -14.06497,-8.73132 -15.85232,-7.0689 z m 36.58248,18.77163 c 0.0244,3.61101 -3.43704,4.29493 -9.37523,4.2083 -4.2059,-0.0614 -8.93188,-0.5518 -8.86397,-4.37991 0.0636,-3.58613 2.79801,-4.85137 9.47318,-4.76994 5.94757,0.0726 8.74809,2.2813 8.76602,4.94155 z"
         sodipodi:nodetypes="ssssssssssssss" />
      <path
         style="fill:#000000;fill-opacity:1;stroke:#000000;stroke-width:2;stroke-dasharray:none"
         d="m 257.82828,276.63961 c -0.0152,2.14235 -0.0304,4.28273 -0.0456,6.4241"
         id="path10952"
         inkscape:path-effect="#path-effect10954"
         inkscape:original-d="m 257.82828,276.63961 c -0.0142,2.14236 -0.0456,6.4241 -0.0456,6.4241"
         sodipodi:nodetypes="cc" />
      <path
         style="fill:#000000;fill-opacity:1;stroke:#000000;stroke-width:2;stroke-dasharray:none"
         d="m 262.45274,276.57126 c 0,0 -0.0456,6.4241 -0.0456,6.4241"
         id="path10952-8"
         inkscape:path-effect="#path-effect10954-2"
         inkscape:original-d="m 262.45274,276.57126 -0.0456,6.4241"
         sodipodi:nodetypes="cc" />
      <path
         style="fill:#000000;fill-opacity:1;stroke:#000000;stroke-width:2;stroke-dasharray:none"
         d="m 267.00884,276.57127 c -0.0152,2.14235 -0.0304,4.28273 -0.0456,6.4241"
         id="path10952-4"
         inkscape:path-effect="#path-effect10954-4"
         inkscape:original-d="m 267.00884,276.57127 c -0.0142,2.14236 -0.0456,6.4241 -0.0456,6.4241"
         sodipodi:nodetypes="cc" />
      <circle
         style="fill:#ffffff;fill-opacity:1;stroke:#000000;stroke-width:0;stroke-dasharray:none"
         id="path13240"
         cx="262.10706"
         cy="286.2753"
         r="1.2564433" />
      <ellipse
         style="fill:#ffffff;fill-opacity:1;stroke:#000000;stroke-width:0;stroke-dasharray:none"
         id="path13240-0-1"
         cx="30.726122"
         cy="374.95166"
         rx="0.77319604"
         ry="1.2564433"
         transform="rotate(-36.063824)" />
      <ellipse
         style="fill:#ffffff;fill-opacity:1;stroke:#000000;stroke-width:0;stroke-dasharray:none"
         id="path13240-0-1-4"
         cx="28.753044"
         cy="367.53668"
         rx="0.77319604"
         ry="1.2564433"
         transform="rotate(-36.063824)" />
      <ellipse
         style="fill:#ffffff;fill-opacity:1;stroke:#000000;stroke-width:0;stroke-dasharray:none"
         id="path13240-0-1-4-9"
         cx="35.281189"
         cy="367.10977"
         rx="0.77319604"
         ry="1.2564433"
         transform="rotate(-36.063824)" />
      <ellipse
         style="fill:#ffffff;fill-opacity:1;stroke:#000000;stroke-width:0;stroke-dasharray:none"
         id="path13240-0-1-4-07"
         cx="387.98077"
         cy="-63.28376"
         rx="0.77319604"
         ry="1.2564433"
         transform="rotate(53.936176)" />
      <ellipse
         style="fill:#ffffff;fill-opacity:1;stroke:#000000;stroke-width:0;stroke-dasharray:none"
         id="path13240-0-1-4-2"
         cx="28.335732"
         cy="360.77643"
         rx="0.77319604"
         ry="1.2564433"
         transform="rotate(-36.063824)" />
      <ellipse
         style="fill:#ffffff;fill-opacity:1;stroke:#000000;stroke-width:0;stroke-dasharray:none"
         id="path13240-0-1-2"
         cx="-392.87384"
         cy="71.836037"
         rx="0.77319604"
         ry="1.2564433"
         transform="rotate(-126.06382)" />
      <ellipse
         style="fill:#ffffff;fill-opacity:1;stroke:#000000;stroke-width:0;stroke-dasharray:none"
         id="path13240-0-1-4-0"
         cx="-394.84692"
         cy="64.421059"
         rx="0.77319604"
         ry="1.2564433"
         transform="rotate(-126.06382)" />
      <ellipse
         style="fill:#ffffff;fill-opacity:1;stroke:#000000;stroke-width:0;stroke-dasharray:none"
         id="path13240-0-1-4-2-5"
         cx="-395.04572"
         cy="56.704033"
         rx="0.77319604"
         ry="1.2564433"
         transform="rotate(-126.06382)" />
      <ellipse
         style="fill:#ffffff;fill-opacity:1;stroke:#000000;stroke-width:0;stroke-dasharray:none"
         id="path13240-0-1-4-2-5-4"
         cx="-391.65121"
         cy="46.980721"
         rx="0.77319604"
         ry="1.2564433"
         transform="rotate(-126.06382)" />
      <ellipse
         style="fill:#ffffff;fill-opacity:1;stroke:#000000;stroke-width:0;stroke-dasharray:none"
         id="path13240-0-1-4-2-5-5"
         cx="-63.782833"
         cy="380.61133"
         rx="0.77319604"
         ry="1.2564433"
         transform="rotate(-51.06382)" />
    </g>
    <path
       class="nostroke"
       d="m 257.69,332.06 h 9.6962 v 11.312 h 11.312 v 9.6962 h -11.312 v 11.312 H 257.69 v -11.312 h -11.312 v -9.6962 h 11.312 z"
       fill="#ffffff"
       id="path22" />
  </g>
  <g
     transform="matrix(-1,0,0,1,1051.2,503.32093)"
     id="g44">
    <g
       stroke="#000000"
       stroke-width="3"
       id="g40">
      <path
         d="m 266.56,235.57 c -4.6015,0.072 -9.3221,0.34732 -13.651,1.9465 -3.4732,1.2829 -6.8653,2.905 -9.7605,5.2578 -7.2491,5.8911 -11.497,15.402 -10.66,24.778 0.53202,5.9563 3.5543,11.535 7.9727,15.533 4.3404,3.9278 9.7402,6.6602 15.405,7.9697 2.8421,0.65704 5.796,0.71374 8.6964,0.55115 6.7467,-0.3782 13.394,-2.9186 18.5,-7.3817 3.4691,-3.032 6.3845,-6.7501 8.3382,-10.918 2.0385,-4.3484 2.5694,-9.2784 2.2575,-14.033 -0.25638,-3.9086 -1.5598,-7.7122 -3.6997,-10.998 -1.8454,-2.8335 -4.4998,-4.9805 -6.9571,-7.289 -4.3715,-4.1069 -10.598,-5.5193 -16.442,-5.4171 z"
         fill="none"
         id="path26" />
      <path
         d="m 291.32,404.5 c 2.0514,-20.927 3.5829,-41.997 2.4606,-63.015 -0.56396,-10.562 -1.4487,-21.267 -4.7728,-31.368 -1.0739,-3.2634 -2.5393,-6.4762 -5.0463,-8.9157 -4.6188,-4.4942 -10.554,-7.8057 -16.91,-8.8694 -5.7064,-0.95508 -11.635,0.0276 -16.978,2.1145 -5.6404,2.2027 -10.984,6.1252 -13.379,11.887 -4.4618,10.733 -6.031,22.425 -6.5961,33.949 -0.78697,16.048 -0.25232,32.255 2.7225,48.046 0.89982,4.7763 2.067,9.5129 3.6943,14.126 0.39195,1.1111 1.3281,1.694 2.5554,1.7021 17.417,0.11477 46.349,0.38013 52.25,0.3443 3.3e-4,0 -6e-4,-8e-4 -6e-4,-8e-4 z"
         fill="#cc0000"
         id="path28" />
      <g
         fill="none"
         id="g38">
        <path
           d="m 246.89,404.7 c 0.0914,9.7747 0.24045,3.9268 -0.39069,12.763 -1.1015,15.421 -1.5488,30.884 -2.8,46.299 -0.24706,3.044 -0.59181,8.8377 -1.0939,11.85"
           id="path30" />
        <path
           d="m 236.58,305.95 c -3.2225,5.6196 -5.7705,11.352 -8.2451,17.734 -5.7216,14.756 -9.3957,33.026 -12.83,48.483 -1.1093,4.9922 -2.2506,10.168 -2.8651,15.238 -0.16402,1.3532 -0.91926,7.9291 -0.40379,3.6475"
           id="path32" />
        <path
           d="m 287.2,305.6 c 4.7566,7.588 6.3433,13.436 7.0849,15.778 2.725,8.6055 4.0966,18.002 5.9831,26.828 1.9493,9.1203 3.5283,16.931 5.7425,25.994 0.27929,1.1432 5.1326,23.973 3.6465,16.735"
           id="path34" />
        <path
           d="m 281.46,404.78 c -0.0913,9.7747 -0.24044,3.9268 0.3907,12.763 1.1015,15.421 1.5488,30.884 2.8,46.299 0.24707,3.044 0.59182,8.8377 1.0939,11.85"
           id="path36" />
      </g>
    </g>
    <path
       class="nostroke"
       d="m 257.69,332.06 h 9.6962 v 11.312 h 11.312 v 9.6962 h -11.312 v 11.312 H 257.69 v -11.312 h -11.312 v -9.6962 h 11.312 z"
       fill="#ffffff"
       id="path42" />
  </g>
  <text
     x="967.37054"
     y="227.65431"
     font-size="32px"
     text-anchor="end"
     xml:space="preserve"
     id="text52"
     style="text-align:end;text-anchor:end"><tspan
       sodipodi:role="line"
       x="967.37054"
       y="227.65431"
       style="text-align:end;text-anchor:end"
       id="tspan1050">BITTE NÖD!</tspan><tspan
       sodipodi:role="line"
       x="967.37054"
       y="267.65433"
       style="text-align:end;text-anchor:end"
       id="tspan4429" /><tspan
       sodipodi:role="line"
       x="967.37054"
       y="307.65433"
       style="text-align:end;text-anchor:end"
       id="tspan4431">WIESO MACHSCH DU DAS?</tspan><tspan
       sodipodi:role="line"
       x="967.37054"
       y="347.65433"
       style="text-align:end;text-anchor:end"
       id="tspan4435" /><tspan
       sodipodi:role="line"
       x="967.37054"
       y="387.65433"
       style="text-align:end;text-anchor:end"
       id="tspan4439">DAS ISCH GRAUSAM!</tspan><tspan
       sodipodi:role="line"
       x="967.37054"
       y="427.65433"
       style="text-align:end;text-anchor:end"
       id="tspan6755" /><tspan
       sodipodi:role="line"
       x="967.37054"
       y="467.65433"
       style="text-align:end;text-anchor:end"
       id="tspan21929">ISS DOCH ÖPPIS ANDERS!</tspan></text>
  <g
     fill="none"
     stroke="#000000"
     stroke-width="1px"
     id="g88"
     transform="translate(0,13.402062)">
    <path
       d="m 190.68618,742.34839 c 17.70041,-7.70768 35.43786,-15.95871 49.35533,-27.3564 10.32174,-8.45255 17.08177,-19.06656 20.44927,-30.17914 3.91247,-12.90907 4.43161,-26.23313 4.49968,-39.41537"
       id="path84"
       style="stroke-width:0.864372px" />
    <path
       d="m 787.63249,490.73409 c 1.02339,15.02641 -1.58897,30.03633 -1.20389,45.05477 0.45545,17.7612 4.69975,35.43403 3.9737,53.22343 -1.33025,32.59547 -6.11785,42.61962 -6.66281,75.22626 -0.23445,14.02735 -1.02471,28.43284 2.33205,42.37823"
       id="path86"
       sodipodi:nodetypes="csssc"
       style="stroke-width:0.732976px" />
    <path
       d="m 252.73542,307.87065 c 1.7604,-6.31315 -0.041,-32.42683 -0.54186,-38.87221 -0.48387,-6.22633 2.59092,-36.51691 2.60372,-42.76509"
       id="path82-3"
       sodipodi:nodetypes="csc"
       style="stroke-width:0.904573px" />
  </g>
  <text
     x="54.882149"
     y="200.4998"
     xml:space="preserve"
     id="text80-8"><tspan
       x="54.882149"
       y="200.4998"
       font-size="32px"
       id="tspan78-7">Jetzt bisch du ah de Reihe</tspan></text>
  <text
     x="792.79999"
     y="78.192169"
     xml:space="preserve"
     id="text80-8-8"
     style="font-size:42.6667px;font-family:'MJ Handwriting'"><tspan
       x="498.68799"
       y="78.192169"
       font-size="32px"
       id="tspan78-7-7"
       style="font-size:42.6667px;text-align:center;text-anchor:middle">Hannibal Lecter trifft Nicht-Veganer</tspan></text>
  <text
     xml:space="preserve"
     style="font-size:32px"
     x="49.484535"
     y="363.91754"
     id="text900"><tspan
       sodipodi:role="line"
       x="49.484535"
       y="363.91754"
       id="tspan955">Tue doch nöd so.</tspan><tspan
       sodipodi:role="line"
       x="49.484535"
       y="403.91754"
       id="tspan6023" /><tspan
       sodipodi:role="line"
       x="49.484535"
       y="443.91754"
       id="tspan6025">Pflanze händ schliesslich</tspan><tspan
       sodipodi:role="line"
       x="49.484535"
       y="483.91754"
       id="tspan6027">au Gfühl.</tspan><tspan
       sodipodi:role="line"
       x="49.484535"
       y="523.91754"
       id="tspan6814" /><tspan
       sodipodi:role="line"
       x="49.484535"
       y="563.91754"
       id="tspan6816">Darum macht's kein Unterschied</tspan><tspan
       sodipodi:role="line"
       x="49.484535"
       y="603.91754"
       id="tspan6818">ob ich es Rüebli hacke oder dir</tspan><tspan
       sodipodi:role="line"
       x="49.484535"
       y="643.91754"
       id="tspan6820">de Chopf abschniide.</tspan></text>
</svg>
