<svg width="101" height="242" version="1.1" viewBox="0 0 101 242" xmlns="http://www.w3.org/2000/svg">
  <g transform="translate(-210.56,-234.06)">
    <g stroke="#000" stroke-width="3">
      <path class="line" d="m266.56 235.57c-4.6015 0.072-9.3221 0.34732-13.651 1.9465-3.4732 1.2829-6.8653 2.905-9.7605 5.2578-7.2491 5.8911-11.497 15.402-10.66 24.778 0.53202 5.9563 3.5543 11.535 7.9727 15.533 4.3404 3.9278 9.7402 6.6602 15.405 7.9697 2.8421 0.65704 5.796 0.71374 8.6964 0.55115 6.7467-0.3782 13.394-2.9186 18.5-7.3817 3.4691-3.032 6.3845-6.7501 8.3382-10.918 2.0385-4.3484 2.5694-9.2784 2.2575-14.033-0.25638-3.9086-1.5598-7.7122-3.6997-10.998-1.8454-2.8335-4.4998-4.9805-6.9571-7.289-4.3715-4.1069-10.598-5.5193-16.442-5.4171z" fill="none"/>
      <path class="line" d="m291.32 404.5c2.0514-20.927 3.5829-41.997 2.4606-63.015-0.56396-10.562-1.4487-21.267-4.7728-31.368-1.0739-3.2634-2.5393-6.4762-5.0463-8.9157-4.6188-4.4942-10.554-7.8057-16.91-8.8694-5.7064-0.95508-11.635 0.0276-16.978 2.1145-5.6404 2.2027-10.984 6.1252-13.379 11.887-4.4618 10.733-6.031 22.425-6.5961 33.949-0.78697 16.048-0.25232 32.255 2.7225 48.046 0.89982 4.7763 2.067 9.5129 3.6943 14.126 0.39195 1.1111 1.3281 1.694 2.5554 1.7021 17.417 0.11477 46.349 0.38013 52.25 0.3443 3.3e-4 0-6e-4 -8e-4 -6e-4 -8e-4z" fill="#c00"/>
      <g fill="none">
        <path class="line" d="m246.89 404.7c0.0914 9.7747 0.24045 3.9268-0.39069 12.763-1.1015 15.421-1.5488 30.884-2.8 46.299-0.24706 3.044-0.59181 8.8377-1.0939 11.85"/>
        <path class="line" d="m236.58 305.95c-3.2225 5.6196-5.7705 11.352-8.2451 17.734-5.7216 14.756-9.3957 33.026-12.83 48.483-1.1093 4.9922-2.2506 10.168-2.8651 15.238-0.16402 1.3532-0.91926 7.9291-0.40379 3.6475"/>
        <path class="line" d="m287.2 305.6c4.7566 7.588 6.3433 13.436 7.0849 15.778 2.725 8.6055 4.0966 18.002 5.9831 26.828 1.9493 9.1203 3.5283 16.931 5.7425 25.994 0.27929 1.1432 5.1326 23.973 3.6465 16.735"/>
        <path class="line" d="m281.46 404.78c-0.0913 9.7747-0.24044 3.9268 0.3907 12.763 1.1015 15.421 1.5488 30.884 2.8 46.299 0.24707 3.044 0.59182 8.8377 1.0939 11.85"/>
      </g>
    </g>
    <path d="m257.69 332.06h9.6962v11.312h11.312v9.6962h-11.312v11.312h-9.6962v-11.312h-11.312v-9.6962h11.312z" fill="#fff" stroke-opacity="0" stroke-width="0"/>
  </g>
</svg>
